<svg width="12" height="12" viewBox="0 0 12 12" fill="none" xmlns="http://www.w3.org/2000/svg">
<path fill-rule="evenodd" clip-rule="evenodd" d="M6 12C9.3137 12 12 9.3137 12 6C12 2.68629 9.3137 0 6 0C2.68629 0 0 2.68629 0 6C0 9.3137 2.68629 12 6 12ZM6 11C8.7614 11 11 8.7614 11 6C11 3.23858 8.7614 1 6 1C3.23858 1 1 3.23858 1 6C1 8.7614 3.23858 11 6 11Z" fill="white"/>
<path fill-rule="evenodd" clip-rule="evenodd" d="M6 10C8.2091 10 10 8.2091 10 6C10 3.79086 8.2091 2 6 2C3.79086 2 2 3.79086 2 6C2 8.2091 3.79086 10 6 10ZM6 9C7.65685 9 9 7.65685 9 6C9 4.34315 7.65685 3 6 3C4.34315 3 3 4.34315 3 6C3 7.65685 4.34315 9 6 9Z" fill="white"/>
<path d="M6 8C7.10457 8 8 7.10457 8 6C8 4.89543 7.10457 4 6 4C4.89543 4 4 4.89543 4 6C4 7.10457 4.89543 8 6 8Z" fill="white"/>
</svg>
