<svg width="9" height="9" viewBox="0 0 9 9" fill="none" xmlns="http://www.w3.org/2000/svg">
<path d="M4.5 6.588C4.431 6.588 4.36714 6.57664 4.30843 6.55393C4.24971 6.53122 4.1925 6.49179 4.13679 6.43564L2.4525 4.752C2.38993 4.68943 2.35736 4.61572 2.35479 4.53086C2.35221 4.446 2.38479 4.36822 2.4525 4.2975C2.52364 4.22636 2.60014 4.19015 2.682 4.18886C2.76429 4.18757 2.84079 4.2225 2.9115 4.29364L4.17857 5.56072V0.321433C4.17857 0.230147 4.20921 0.153647 4.2705 0.091933C4.33179 0.0302188 4.40829 -0.000424138 4.5 4.43348e-06C4.59171 0.000433005 4.66821 0.0310759 4.7295 0.091933C4.79079 0.15279 4.82143 0.22929 4.82143 0.321433V5.56072L6.0885 4.29364C6.15107 4.23107 6.22543 4.19829 6.31157 4.19529C6.39771 4.19229 6.47614 4.22636 6.54686 4.2975C6.61543 4.36822 6.65036 4.44407 6.65164 4.52507C6.65293 4.60607 6.61821 4.68172 6.5475 4.752L4.86321 6.43629C4.8075 6.492 4.75029 6.53122 4.69157 6.55393C4.63329 6.57664 4.56943 6.588 4.5 6.588ZM1.03886 9C0.742714 9 0.495643 8.901 0.297643 8.703C0.0996427 8.505 0.000428571 8.25772 0 7.96114V6.72493C0 6.63364 0.0306429 6.55736 0.0919287 6.49607C0.153214 6.43479 0.229714 6.40393 0.321429 6.4035C0.413143 6.40307 0.489643 6.43393 0.550928 6.49607C0.612214 6.55822 0.642857 6.6345 0.642857 6.72493V7.96114C0.642857 8.06014 0.684 8.151 0.766286 8.23372C0.848571 8.31643 0.939214 8.35757 1.03821 8.35714H7.96179C8.06036 8.35714 8.151 8.316 8.23371 8.23372C8.31643 8.15143 8.35757 8.06057 8.35714 7.96114V6.72493C8.35714 6.63364 8.38778 6.55736 8.44907 6.49607C8.51036 6.43479 8.58686 6.40393 8.67857 6.4035C8.77029 6.40307 8.84679 6.43393 8.90807 6.49607C8.96936 6.55822 9 6.6345 9 6.72493V7.96114C9 8.25729 8.901 8.50436 8.703 8.70236C8.505 8.90036 8.25771 8.99957 7.96114 9H1.03886Z" fill="white"/>
</svg>
